<svg width="40" height="40" viewBox="0 0 40 40" fill="none" xmlns="http://www.w3.org/2000/svg">
<g clip-path="url(#clip0_34900_3956)">
<path d="M12.833 12.8333V9.16663C12.833 8.1049 13.1404 7.06588 13.7179 6.17498C14.2954 5.28407 15.1185 4.57937 16.0877 4.14594C17.0569 3.7125 18.1309 3.56886 19.1799 3.73235C20.229 3.89584 21.2083 4.35948 21.9997 5.06729C22.791 4.35948 23.7704 3.89584 24.8194 3.73235C25.8685 3.56886 26.9424 3.7125 27.9117 4.14594C28.8809 4.57937 29.7039 5.28407 30.2815 6.17498C30.859 7.06588 31.1663 8.1049 31.1663 9.16663V12.8333H33.9163C34.6457 12.8333 35.3452 13.123 35.8609 13.6387C36.3766 14.1545 36.6663 14.8539 36.6663 15.5833V33.9258C36.6663 35.6252 35.9913 37.2549 34.7896 38.4566C33.588 39.6582 31.9582 40.3333 30.2588 40.3333H14.6663C12.7214 40.3333 10.8562 39.5607 9.48089 38.1854C8.10562 36.8101 7.33301 34.9449 7.33301 33V15.5833C7.33301 14.8539 7.62274 14.1545 8.13846 13.6387C8.65419 13.123 9.35366 12.8333 10.083 12.8333H12.833ZM24.9972 37.5833C24.2493 36.5104 23.8493 35.2336 23.8513 33.9258V15.5833H10.083V33C10.083 33.6019 10.2016 34.1979 10.4319 34.7539C10.6622 35.31 10.9998 35.8153 11.4254 36.2409C11.851 36.6665 12.3563 37.0041 12.9124 37.2344C13.4685 37.4647 14.0644 37.5833 14.6663 37.5833H24.9972ZM21.083 12.8333V9.16663C21.083 8.43728 20.7933 7.73781 20.2776 7.22208C19.7618 6.70636 19.0624 6.41663 18.333 6.41663C17.6037 6.41663 16.9042 6.70636 16.3885 7.22208C15.8727 7.73781 15.583 8.43728 15.583 9.16663V12.8333H21.083ZM23.833 12.8333H28.4163V9.16663C28.4164 8.60056 28.2418 8.04826 27.9163 7.58513C27.5908 7.12199 27.1303 6.77059 26.5977 6.57888C26.0651 6.38717 25.4863 6.36449 24.9403 6.51395C24.3943 6.6634 23.9077 6.97771 23.547 7.41396C23.7322 7.96396 23.833 8.55429 23.833 9.16663V12.8333ZM26.6013 33.9258C26.6013 34.8958 26.9867 35.8261 27.6726 36.512C28.3585 37.198 29.2888 37.5833 30.2588 37.5833C31.2289 37.5833 32.1592 37.198 32.8451 36.512C33.531 35.8261 33.9163 34.8958 33.9163 33.9258V15.5833H26.6013V33.9258Z" fill="white"/>
</g>
<defs>
<clipPath id="clip0_34900_3956">
<rect width="40" height="40" fill="white"/>
</clipPath>
</defs>
</svg>
